<svg width="234" height="64" viewBox="0 0 234 64" fill="none" xmlns="http://www.w3.org/2000/svg">
<g clip-path="url(#clip0_925_17216)">
<path d="M94.3743 34.8383L96.87 21.3087C97.778 16.3904 102.886 13.0403 108.368 13.0403C113.85 13.0403 117.799 16.4129 116.891 21.3087L114.396 34.8664C113.488 39.7904 108.34 43.1348 102.825 43.1348C97.3101 43.1348 93.4718 39.7623 94.3743 34.8383ZM106.975 35.1756L109.594 20.949C109.637 20.6472 109.611 20.3396 109.52 20.0489C109.429 19.7582 109.274 19.492 109.067 19.2701C108.86 19.0481 108.606 18.8761 108.324 18.7668C108.042 18.6575 107.739 18.6138 107.438 18.6388C106.761 18.6434 106.104 18.8718 105.567 19.2891C105.031 19.7063 104.645 20.2894 104.469 20.949L101.828 35.1756C101.611 36.3448 102.435 37.4521 103.956 37.4521C104.639 37.4674 105.307 37.2515 105.855 36.8389C106.402 36.4263 106.796 35.8408 106.975 35.1756ZM116.245 43.607L121.972 12.5063H129.933L124.59 41.6622L116.245 43.607Z" fill="#036635"/>
<path d="M128.657 43.6126L130.289 34.7372H152.399L152.622 33.5343H130.512L131.197 29.8188H161.279L159.714 38.3233H137.592L137.358 39.5599H159.441L158.8 43.6126H128.657ZM130.228 28.3799L131.102 23.6246H163.663L162.789 28.3799H130.228ZM133.186 17.138L134.033 12.5176H148.466L145.837 22.787H137.865L139.23 17.1324L133.186 17.138ZM148.11 17.138L149.28 12.5176H164.805L162.165 22.7927H154.254L155.642 17.138H148.11Z" fill="#036635"/>
<path d="M163.664 42.6067L167.006 24.6815H175.847L176.822 19.3922H167.964L169.039 13.5352H184.676L181.601 30.19H172.866L171.808 35.9234L181.986 34.7992L180.9 40.69L163.664 42.6067ZM181.234 43.6128L186.966 12.5122H193.189L191.083 23.9283H192.632L194.737 12.5122H201.066L195.723 41.668L189.005 43.6128L191.517 29.9877H189.958L187.835 41.668L181.234 43.6128Z" fill="#036635"/>
<path d="M198.252 43.1069L199.367 37.0812H205.166L206.135 31.8257H213.316L212.346 37.0812H219.07L220.034 31.8257H227.215L226.251 37.0812H233.332L232.329 43.1069H198.252ZM210.302 30.6902C205.104 30.6902 202.158 26.705 203.06 21.7867C203.528 19.3028 204.83 17.0575 206.747 15.4287C208.664 13.7999 211.078 12.8871 213.583 12.8438H226.563C231.8 12.8438 234.741 16.829 233.833 21.7867C233.354 24.2731 232.039 26.5166 230.111 28.1386C228.182 29.7606 225.759 30.6618 223.248 30.6902H210.302ZM222.062 25.0299C222.979 25.0324 223.868 24.7086 224.572 24.1155C225.276 23.5223 225.75 22.6977 225.911 21.7867C226.251 19.943 225.198 18.5715 223.254 18.5715H214.87C213.957 18.5678 213.071 18.8876 212.368 19.4752C211.664 20.0627 211.188 20.8808 211.021 21.7867C210.675 23.6584 211.734 25.0299 213.678 25.0299H222.062Z" fill="#036635"/>
<path d="M21.5758 53.3521C21.2185 51.7131 20.2679 50.2641 18.9067 49.2833C17.5455 48.3026 15.8697 47.8595 14.2014 48.0391C12.5332 48.2187 10.9903 49.0085 9.86916 50.2564C8.74805 51.5044 8.12791 53.1227 8.12793 54.8001C8.12793 56.6035 8.84455 58.3331 10.1202 59.6083C11.3958 60.8836 13.1259 61.6 14.9298 61.6C16.7338 61.6 18.4639 60.8836 19.7395 59.6083C21.0151 58.3331 21.7317 56.6035 21.7317 54.8001C21.7316 54.3322 21.683 53.8656 21.5869 53.4078L21.5758 53.3521Z" fill="#036635"/>
<path d="M23.6757 39.2962L24.6952 37.52L46.2318 0.00585938L39.1903 7.87517L29.525 18.7123H11.1415L0 39.3131V51.9995C7.58481e-05 52.2788 0.053018 52.5554 0.155981 52.8146C0.317917 53.238 0.603073 53.6021 0.973949 53.8589C1.34482 54.1158 1.78405 54.2533 2.23387 54.2535H6.56793C6.59815 52.161 7.39853 50.1546 8.81345 48.6245C10.2284 47.0944 12.1567 46.1498 14.2235 45.9746C16.2902 45.7993 18.3477 46.4059 19.9959 47.6763C21.644 48.9467 22.7651 50.7902 23.141 52.8483C23.2212 53.3124 23.2622 53.7825 23.2635 54.2535H28.7229L34.444 37.7786L32.1433 38.0933L23.6757 39.2962ZM20.4503 36.3396C20.4503 36.6273 20.337 36.9032 20.1354 37.1067C19.9337 37.3101 19.6603 37.4244 19.3751 37.4244H5.42035C4.25049 37.4244 4.15022 36.6656 4.55131 35.9686L11.6652 22.8662C12.0106 22.1411 12.2947 21.787 12.8907 21.787H19.3807C19.6649 21.787 19.9375 21.9005 20.139 22.1027C20.3405 22.305 20.4544 22.5795 20.4558 22.8662L20.4503 36.3396Z" fill="#036635"/>
<path d="M21.5757 52.8819C21.5778 52.8632 21.5778 52.8444 21.5757 52.8257V52.8819Z" fill="#036635"/>
<path d="M76.6 54.7514C76.5871 52.9522 75.8617 51.2314 74.5826 49.966C73.3036 48.7005 71.5751 47.9936 69.7758 48C67.9765 48.0065 66.2531 48.7257 64.9831 50.0003C63.7131 51.2748 63 53.0007 63 54.8C63 56.5993 63.7131 58.3252 64.9831 59.5997C66.2531 60.8743 67.9765 61.5935 69.7758 61.6C71.5751 61.6064 73.3036 60.8994 74.5826 59.634C75.8617 58.3686 76.5871 56.6478 76.6 54.8486V54.7514Z" fill="#036635"/>
<path d="M88.0793 48.0027L85.7619 13.4002C85.6946 12.9551 85.4871 12.5437 85.17 12.2268C84.853 11.91 84.4433 11.7045 84.0015 11.6409C83.9292 11.6353 83.8566 11.6353 83.7843 11.6409H44.1427L38.5719 27.1378L37.987 28.7679L44.1761 28.1552L46.7554 27.8966L32.0987 55.5966L27.6421 64.028L36.1709 54.315H61.1335C61.1567 52.2174 61.9541 50.2039 63.3698 48.6677C64.7855 47.1315 66.718 46.1829 68.7897 46.0073C70.8614 45.8317 72.9236 46.4417 74.5735 47.718C76.2233 48.9944 77.3424 50.8455 77.7121 52.9098C77.7905 53.374 77.8296 53.8441 77.8291 54.315H231.582L232.312 48.0308L88.0793 48.0027Z" fill="#036635"/>
</g>
<defs>
<clipPath id="clip0_925_17216">
<rect width="234" height="64" fill="white"/>
</clipPath>
</defs>
</svg>
